<?xml version="1.0" encoding="UTF-8"?>
<svg xmlns="http://www.w3.org/2000/svg" xmlns:xlink="http://www.w3.org/1999/xlink" version="1.1" viewBox="0 0 1080 1080">
  
  <image width="1080" height="1080" preserveAspectRatio="xMidYMid slice" href="{{BG_BASE64}}" />

  <g id="LOGO_x5F_WPOS">
    <g>
      <path d="M127.38,49.95c-.32-.83-.73-1.59-1.23-2.29-.49-.71-1.08-1.32-1.77-1.84-.69-.52-1.48-.93-2.38-1.22-.89-.3-1.88-.45-2.98-.45s-2.06.15-2.93.45c-.88.29-1.65.69-2.33,1.22-.68.52-1.27,1.14-1.76,1.84-.49.7-.9,1.46-1.23,2.29-.32.82-.55,1.68-.71,2.58-.15.89-.22,1.79-.22,2.7s.07,1.8.22,2.7c.16.89.4,1.75.71,2.57.33.81.74,1.57,1.23,2.28.49.7,1.08,1.3,1.76,1.82.68.51,1.46.92,2.33,1.22.88.29,1.85.43,2.93.43s2.09-.14,2.98-.43c.89-.3,1.69-.7,2.38-1.22.69-.51,1.28-1.12,1.77-1.82.5-.71.91-1.47,1.23-2.28.33-.82.56-1.68.71-2.57.16-.89.24-1.79.24-2.7s-.08-1.8-.24-2.7c-.15-.9-.39-1.76-.71-2.58Z" fill="none"/>
      <path d="M96.91,46.11c-.97-.82-2.48-1.23-4.54-1.23h-6.86v9.61h6.86c2.06.03,3.57-.37,4.54-1.2.98-.84,1.47-2.04,1.47-3.6s-.49-2.76-1.47-3.58Z" fill="none"/>
      <path d="M33.68,39.16c-7.19,7.17-8.45,17.96-3.83,26.44.11.16.16.31.21.52.1.31.1.68.05,1.05l-.68,5.24c0,1.41,1.15,2.51,2.52,2.51l5.35-.68c.47-.05,1,.05,1.42.26,8.39,4.56,19.1,3.4,26.23-3.56,8.81-8.53,9.08-22.62.68-31.41-8.71-9.11-23.08-9.21-31.95-.37ZM63.74,48.32c-.05.31-.21.63-.31.89-1.89,5.24-3.78,10.42-5.67,15.65-.16.37-.26.79-.47,1.1-.63,1.05-1.84,1.1-2.57.16-.26-.37-.47-.84-.63-1.26-1.42-3.51-2.78-7.07-4.14-10.58-.16-.37-.31-.73-.52-1.26-.26.58-.42.94-.58,1.36-1.36,3.51-2.78,7.07-4.14-10.58-.16.37-.26.73-.47,1.1-.63,9.9-1.94.99-2.62.05-.21-.31-.37-.73-.47-1.1-1.94-5.29-3.83-10.58-5.77-15.86-.1-.21-.16-.47-.21-.68-.26-1.05.16-1.83,1.15-2.15,1-.31,1.78.05,2.15,1.1,1.15,3.3,2.31,6.65,3.46,9.95.16.73.42,1.52.79,2.57.26-.68.47-1.1.63-1.52,1.36-3.46,2.73-6.91,4.14-10.37.16-.42.37-.89.68-1.26.63-.84,1.73-.84,2.36,0,.26.31.47.73.63,1.15,1.42,3.56,2.83,7.12,4.25,10.68.16.37.32.73.58,1.26.21-.52.37-.79.47-1.1,1.31-3.72,2.57-7.49,3.88-11.2.47-1.31,1.52-1.73,2.62-1.1.68.42,1,1.05.79,1.83Z" fill="#fff"/>
      <path d="M99.99,43.76c-.73-.71-1.63-1.25-2.7-1.62-1.06-.38-2.28-.57-3.66-.57h-10.07c-.27,0-.53.05-.77.15-.23.1-.44.24-.61.42-.17.17-.3.37-.41.6-.1.23-.15.48-.15.74v23.77c0,.28.05.54.15.78.1.23.24.43.41.6.18.17.38.3.61.39.24.09.5.14.77.14s.52-.05.75-.14c.24-.09.45-.22.63-.39.18-.17.32-.37.42-.6.1-.23.15-.49.15-.78v-9.5h8.12c1.41.02,2.65-.16,3.72-.54,1.07-.39,1.97-.94,2.68-1.65.73-.71,1.27-1.56,1.63-2.56.37-1,.56-2.1.56-3.31s-.19-2.37-.57-3.37c-.37-1.01-.93-1.86-1.66-2.56ZM96.91,53.29c-.97.83-2.48,1.23-4.54,1.2h-6.86v-9.61h6.86c2.06,0,3.57.41,4.54,1.23.98.82,1.47,2.01,1.47,3.58s-.49,2.77-1.47,3.6Z" fill="#fff"/>
      <path d="M130.72,48.17c-.49-1.06-1.11-2.04-1.86-2.92-.74-.89-1.59-1.66-2.57-2.31-.98-.65-2.07-1.16-3.28-1.51-1.21-.36-2.54-.54-3.98-.54s-2.75.18-3.95.54c-1.2.35-2.29.86-3.26,1.51-.97.64-1.82,1.41-2.56,2.31-.74.88-1.35,1.86-1.84,2.92-.49,1.06-.87,2.19-1.12,3.4-.24,1.19-.36,2.41-.36,3.66s.12,2.47.36,3.66c.25,1.18.62,2.3,1.12,3.35.49,1.05,1.11,2.02,1.84,2.91.74.88,1.59,1.63,2.56,2.28.97.63,2.05,1.13,3.26,1.48,1.2.35,2.52.53,3.95.53s2.77-.18,3.98-.53c1.21-.35,2.31-.85,3.28-1.48.98-.64,1.84-1.4,2.57-2.28.75-.88,1.36-1.85,1.86-2.91.49-1.05.87-2.17,1.12-3.35.25-1.19.38-2.41.38-3.66s-.13-2.47-.38-3.66c-.25-1.2-.62-2.33-1.12-3.4ZM128.1,57.93c-.15.89-.39,1.75-.71,2.57-.32.81-.73,1.57-1.23,2.28-.49.7-1.08,1.3-1.77,1.82-.69.51-1.48.92-2.38,1.22-.89.29-1.88.43-2.98.43s-2.06-.14-2.93-.43c-.88-.3-1.65-.7-2.33-1.22-.68-.51-1.27-1.12-1.76-1.82-.49-.71-.9-1.47-1.23-2.28-.32-.82-.55-1.68-.71-2.57-.15-.89-.22-1.79-.22-2.7s.07,1.8.22-2.7c.16-.9.4-1.76.71-2.58.33-.83.74-1.59,1.23-2.29.49-.71,1.08-1.32,1.76-1.84.68-.52,1.46-.93,2.33-1.22.88-.3,1.85-.45,2.93-.45s2.09.15,2.98.45c.89.29,1.69.69,2.38,1.22.69.52,1.28,1.14,1.77,1.84.5.7.91,1.46,1.23,2.29.33.82.56,1.68.71,2.58.16.89.24,1.79.24,2.7s-.08,1.8-.24,2.7Z" fill="#fff"/>
      <path d="M156.37,56.73c-.49-.55-1.08-1.01-1.76-1.38-.67-.38-1.39-.7-2.17-.96-.77-.27-1.58-.5-2.42-.68-.83-.2-1.65-.38-2.47-.55-.96-.2-1.86-.4-2.7-.61-.83-.22-1.55-.5-2.17-.84-.62-.34-1.1-.74-1.45-1.22-.35-.48-.53-1.09-.53-1.8,0-.86.17-1.57.5-2.15.34-.58.79-1.04,1.33-1.4.55-.35,1.17-.61,1.86-.75.69-.15,1.38-.22,2.07-.22.85,0,1.63.08,2.33.25.72.17,1.35.43,1.9.8.56.35,1.02.81,1.4,1.37.37.55.65,1.22.84,2,.07.24.17.46.31.66.15.19.33.34.53.47.2.12.43.2.67.25.24.04.49.03.74-.03.25-.07.47-.17.67-.31.2-.15.35-.32.47-.52.13-.2.21-.42.25-.66.05-.24.05-.49,0-.74-.24-1.17-.66-2.19-1.26-3.05-.59-.86-1.31-1.56-2.18-2.12-.87-.56-1.85-.97-2.95-1.23-1.1-.27-2.28-.4-3.55-.4s-2.44.16-3.62.49c-1.17.32-2.22.81-3.14,1.47-.92.66-1.66,1.5-2.22,2.52-.56,1.01-.84,2.2-.84,3.59,0,.86.13,1.62.38,2.28.25.65.6,1.23,1.03,1.73.45.49.97.93,1.58,1.3.61.36,1.26.68,1.97.95.72.27,1.47.5,2.25.7.78.2,1.57.38,2.38.55.68.14,1.34.28,1.98.43.64.14,1.25.3,1.82.49.58.18,1.1.38,1.58.61.48.23.9.51,1.24.84.34.32.62.69.81,1.12.2.43.29.92.29,1.48,0,.64-.09,1.21-.28,1.7-.19.48-.44.91-.77,1.27-.32.35-.7.65-1.15.88-.44.23-.91.42-1.43.57-.5.14-1.03.24-1.59.29-.55.06-1.1.08-1.65.08-.97,0-1.9-.1-2.78-.31-.88-.21-1.66-.54-2.36-.98-.69-.45-1.27-1.02-1.73-1.7-.46-.69-.75-1.51-.88-2.46-.04-.25-.13-.47-.27-.66-.14-.2-.32-.35-.53-.46-.2-.12-.43-.2-.68-.24-.24-.05-.49-.04-.74.01-.25.07-.47.17-.66.32-.19.14-.34.31-.46.5-.12.2-.2.41-.25.64-.05.23-.05.48-.01.73.2,1.37.62,2.55,1.29,3.53.67.98,1.5,1.78,2.5,2.42,1.01.63,2.15,1.1,3.42,1.4,1.28.3,2.62.45,4.04.45.86,0,1.72-.07,2.59-.2.87-.12,1.7-.32,2.5-.59.8-.27,1.55-.62,2.25-1.05.7-.43,1.3-.94,1.82-1.54.51-.61.92-1.3,1.22-2.08.3-.79.45-1.68.45-2.67s-.14-1.9-.43-2.64c-.28-.75-.67-1.41-1.17-1.96Z" fill="#fff"/>
    </g>
  </g>

</svg>
