<?xml version="1.0" encoding="UTF-8"?>
<svg id="Layer_1" xmlns="http://www.w3.org/2000/svg" xmlns:xlink="http://www.w3.org/1999/xlink" version="1.1" viewBox="0 0 1080 1080">
  <!-- Generator: Adobe Illustrator 30.4.0, SVG Export Plug-In . SVG Version: 2.1.4 Build 226)  -->
  <g id="photo">
    <rect x="-14.94" y="-18.9" width="1110.37" height="1110.37" fill="#fff"/>
    <image href="{{BG_BASE64}}" xlink:href="{{BG_BASE64}}" x="-14.94" y="-18.9" width="1110.37" height="1110.37" preserveAspectRatio="xMidYMid slice"/>
  </g>
  <g id="LOGO_x5F_WN">
    <g>
      <path d="M228.49,57.37c-2.38,0-4.22.5-5.64,1.5s-2.13,2.59-2.13,2.67c-.5,1.09-.21,2.09.79,2.59.29.13.58.21.88.21.71,0,1.34-.42,1.71-1.21,0,0,.33-.71.88-1.25.79-.79,1.88-1.13,3.72-1.13,2.42,0,4.09,1,4.09,2.55v1.21c0,.71-.46,1.13-1.21,1.17l-5.68.5c-1.38.13-5.97.88-5.97,5.68,0,3.59,2.8,6.1,6.85,6.1,2.59,0,4.76-.71,6.02-1.96.13.96.79,1.59,1.8,1.59h.04c1.13,0,1.84-.79,1.88-2.01v-10.95c.08-4.76-2.72-7.27-8.02-7.27h-.01ZM232.84,69.7c0,2.51-2.55,4.72-5.43,4.72-2.67,0-3.63-1.34-3.63-2.59,0-1,.75-2.3,2.8-2.55l6.27-.75v1.17h-.01Z" fill="#fff"/>
      <path d="M241.82,57.37h-.04c-1.04,0-1.71.71-1.76,1.88v16.84c0,1.13.67,1.84,1.71,1.88h.04c1.04,0,1.71-.71,1.75-1.88v-16.84c-.04-1.17-.67-1.88-1.71-1.88h0Z" fill="#fff"/>
      <path d="M129.68,57.46c-.79-.33-1.84-.21-2.26.92l-4.39,12.74-4.97-12.49c-.38-.88-1-1.34-1.63-1.34-.67,0-1.25.46-1.63,1.34l-4.97,12.49-4.39-12.74c-.42-1.13-1.46-1.25-2.26-.92-.84.38-1.38,1.17-.96,2.26l6.06,16.75c.33.88.79,1.38,1.67,1.38s1.25-.5,1.63-1.42l4.85-12.45,4.89,12.45c.38.92,1,1.42,1.63,1.42.92,0,1.34-.5,1.67-1.38l6.02-16.75c.42-1.09-.12-1.88-.96-2.26h0Z" fill="#fff"/>
      <path d="M141.93,56.87c-6.48,0-10.23,5.01-10.23,10.7s3.76,10.69,10.23,10.69,10.24-4.97,10.24-10.69-3.76-10.7-10.24-10.7ZM141.97,74.92c-4.22,0-6.73-3.26-6.73-7.35s2.51-7.31,6.73-7.31,6.73,3.22,6.73,7.31-2.51,7.35-6.73,7.35Z" fill="#fff"/>
      <path d="M164.11,56.87h-.42c-4.97,0-8.86,3.76-8.86,8.52v10.69c0,1.17.88,1.75,1.75,1.75s1.71-.58,1.71-1.75v-10.82c0-2.72,2.17-5.01,5.35-5.01h.42c3.18,0,5.35,2.3,5.35,5.01v10.82c0,1.17.84,1.75,1.71,1.75s1.75-.58,1.75-1.75v-10.69c.13-4.76-3.8-8.52-8.77-8.52h0Z" fill="#fff"/>
      <path d="M185.46,56.87c-6.27,0-9.9,5.01-9.9,10.7s3.59,10.69,9.9,10.69c2.72,0,4.93-.92,6.6-2.51v.13c0,4.01-2.47,7.1-6.6,7.1-2.72,0-4.22-1-5.22-2.01-.79-.79-1.84-.75-2.47-.17-.71.58-.96,1.55-.21,2.42,1.88,2.17,4.51,3.05,7.89,3.05,6.48,0,10.11-4.93,10.11-10.61v-8.98c0-4.68-3.59-9.82-10.11-9.82h.01ZM185.75,74.92c-4.22,0-6.73-3.26-6.73-7.35s2.46-7.31,6.73-7.31,6.31,3.22,6.31,7.31-2.09,7.35-6.31,7.35Z" fill="#fff"/>
      <path d="M208.56,56.87h-.42c-4.97,0-8.86,3.76-8.86,8.52v10.69c0,1.17.88,1.75,1.76,1.75s1.71-.58,1.71-1.75v-10.82c0-2.72,2.17-5.01,5.35-5.01h.42c3.18,0,5.35,2.3,5.35,5.01v10.82c0,1.17.84,1.75,1.71,1.75s1.75-.58,1.75-1.75v-10.69c.12-4.76-3.8-8.52-8.77-8.52h0Z" fill="#fff"/>
      <path d="M241.78,55.34c1.13,0,2.05-.92,2.05-2.05s-.92-2.05-2.05-2.05-2.05.92-2.05,2.05.92,2.05,2.05,2.05Z" fill="#fff"/>
      <path d="M50.13,50.05c-7.63,7.63-8.93,19.19-3.92,28.16h0c.19.33.26.71.2,1.07l-.69,5.44c-.16.82.08,1.71.72,2.34s1.52.88,2.34.72l5.44-.69c.36-.06.74.01,1.07.2h0c8.97,5.02,20.53,3.71,28.16-3.92,9.2-9.2,9.2-24.13,0-33.33-9.2-9.2-24.13-9.2-33.33,0h.01ZM81,59.71l-6.02,16.75c-.33.88-.75,1.38-1.67,1.38-.63,0-1.25-.5-1.63-1.42l-4.89-12.45-4.85,12.45c-.38.92-.71,1.42-1.63,1.42s-1.34-.5-1.67-1.38l-6.06-16.75c-.42-1.09.12-1.88.96-2.26.79-.33,1.84-.21,2.26.92l4.39,12.74,4.97-12.49c.38-.88.96-1.34,1.63-1.34.63,0,1.25.46,1.63,1.34l4.97,12.49,4.39-12.74c.42-1.13,1.46-1.25,2.26-.92.84.38,1.38,1.17.96,2.26Z" fill="#fff"/>
    </g>
  </g>
</svg>
