<?xml version="1.0" encoding="UTF-8"?>
<svg xmlns="http://www.w3.org/2000/svg" xmlns:xlink="http://www.w3.org/1999/xlink" version="1.1" viewBox="0 0 1080 1080">
  
  <image x="0" y="0" width="1080" height="1080" preserveAspectRatio="xMidYMid slice" xlink:href="{{BG_BASE64}}" />

  <g id="LOGO_WPOS" transform="translate(30, 30)">
    <path d="M21.9,0C9.8,0,0,9.8,0,21.9c0,5.7,2.2,10.9,5.8,14.8l-2.2,6.5l6.5-2.2c3.9,3.6,9.1,5.8,14.8,5.8 c12.1,0,21.9-9.8,21.9-21.9S34,0,21.9,0z M31.6,29.9c-0.2,0.6-0.8,1-1.4,1h-4.8c-0.5,0-1-0.3-1.2-0.8l-3.3-8.8l-3.3,8.8 c-0.2,0.5-0.7,0.8-1.2,0.8h-4.8c-0.7,0-1.2-0.4-1.4-1l-3.8-14.3c-0.2-0.7,0.3-1.4,1-1.6c0.7-0.2,1.4,0.3,1.6,1l3,11.5l3.2-8.5 c0.2-0.5,0.7-0.8,1.2-0.8h3.8c0.5,0,1,0.3,1.2,0.8l3.2,8.5l3-11.5c0.2-0.7,0.9-1.2,1.6-1s1.2,0.9,1,1.6L31.6,29.9z" fill="#FFFFFF"/>
    
    <g transform="translate(55, 7)">
      <path d="M0,0h8.6c5.3,0,8.7,3.3,8.7,7.7s-3.4,7.7-8.7,7.7H4.3V26H0V0z M8.4,11.5c2.9,0,4.5-1.7,4.5-3.8c0-2.2-1.6-3.8-4.5-3.8H4.3 v7.6H8.4z" fill="#FFFFFF"/>
      <path d="M37.5,0c6.6,0,11.8,5.3,11.8,13.2s-5.2,13.2-11.8,13.2s-11.8-5.3-11.8-13.2S30.9,0,37.5,0z M37.5,22.3 c4.1,0,7.3-3.6,7.3-9.1s-3.2-9.1-7.3-9.1s-7.3,3.6-7.3,9.1S33.4,22.3,37.5,22.3z" fill="#FFFFFF"/>
      <path d="M57.6,18.8c0-4.8,3.9-8.4,9.5-8.4c5.3,0,9,3.1,10,7.2l-4.1,0.8c-0.6-2.6-2.8-4.5-5.9-4.5c-3.2,0-5.4,2.2-5.4,5 c0,2.6,1.8,4.1,5.5,5l3.8,0.9c5.2,1.2,7.7,3.6,7.7,7.9c0,5.3-4.2,8.8-10.4,8.8c-6,0-9.8-3.3-10.8-8.2l4.1-0.8c0.7,3.4,3.2,5.5,6.7,5.5 c3.4,0,6.2-1.9,6.2-5.3c0-2.8-2-4.2-5.8-5.2l-3.8-0.9C59.9,26.2,57.6,23.6,57.6,18.8z" fill="#FFFFFF"/>
    </g>
  </g>

</svg>
