<?xml version="1.0" encoding="UTF-8"?>
<svg xmlns="http://www.w3.org/2000/svg" xmlns:xlink="http://www.w3.org/1999/xlink" version="1.1" viewBox="0 0 1080 1080">
  <!-- Generator: Adobe Illustrator 30.2.1, SVG Export Plug-In . SVG Version: 2.1.1 Build 1)  -->
  <defs>
    <linearGradient id="linear-gradient" x1="540.25" y1="660.14" x2="540.25" y2="1061.34" gradientUnits="userSpaceOnUse">
      <stop offset="0" stop-color="#000" stop-opacity="0"/>
      <stop offset="1" stop-color="#000"/>
    </linearGradient>
  </defs>
  <g id="overlay">
    <rect x="-14.94" y="581.26" width="1110.37" height="498.74" fill="url(#linear-gradient)"/>
  </g>
  <g id="L2">
    <text transform="translate(75.87 942.83)" fill="#fff" font-family="LINESeedSansTH-Bold, &apos;LINE Seed Sans TH&apos;" font-size="41.66" font-weight="700"><tspan x="0" y="0">{{L2}}</tspan></text>
  </g>
  <g id="L1">
    <text transform="translate(75.87 868.81)" fill="#fff" font-family="LINESeedSansTH-ExtraBold, &apos;LINE Seed Sans TH&apos;" font-size="95.74" font-weight="700"><tspan x="0" y="0">{{L1}}</tspan></text>
  </g>
  <g id="LOGO_x5F_WNvoice">
    <g>
      <path d="M283.31,762.44c-.37-.79-.8-1.34-1.31-1.65-.39-.27-.75-.41-1.1-.41-.74.27-1.24.54-1.51.81l-.52.52-.52.35c-.54.35-.96.7-1.25,1.04-.29.35-.43.75-.43,1.22,0,.97.42,1.86,1.25,2.67.83.81,1.69,1.24,2.58,1.28.66,0,1.31-.29,1.94-.87.64-.58,1.07-1.26,1.31-2.03.04-.15.07-.29.09-.41.02-.12.03-.21.03-.29,0-.7-.18-1.44-.55-2.23Z" fill="#fff"/>
      <path d="M84.77,709.79c.18.15.41.23.7.23.31,0,.54-.08.7-.23.16-.15.3-.39.41-.69l4.66-13.34,4.62,13.34c.13.31.28.54.45.69.17.15.4.23.69.23.31,0,.55-.08.72-.23.17-.15.31-.39.42-.69l5.39-15.37c.13-.36.11-.65-.05-.88-.16-.23-.41-.34-.75-.34-.28,0-.5.07-.67.22-.17.15-.3.36-.38.63l-4.7,13.69-4.68-13.62c-.11-.31-.25-.54-.4-.69-.15-.15-.36-.23-.62-.23-.28,0-.49.08-.66.23-.16.15-.3.39-.41.69l-4.7,13.48-4.61-13.55c-.11-.29-.25-.51-.41-.65-.16-.14-.38-.21-.66-.21-.37,0-.64.12-.81.35-.17.24-.2.52-.09.86l5.37,15.37c.11.31.26.54.44.69Z" fill="#fff"/>
      <path d="M114.14,698.55c-.84-.5-1.84-.76-2.99-.76-.86,0-1.63.14-2.32.43-.69.28-1.28.69-1.79,1.23-.5.54-.88,1.18-1.14,1.94s-.39,1.6-.39,2.55c0,1.25.23,2.33.69,3.25.46.92,1.11,1.63,1.96,2.13.84.5,1.84.76,2.99.76.86,0,1.63-.14,2.32-.43.69-.28,1.28-.7,1.79-1.24.5-.54.88-1.19,1.14-1.94.26-.75.39-1.59.39-2.53,0-1.25-.23-2.33-.69-3.25-.46-.92-1.11-1.63-1.96-2.13ZM114.35,706.39c-.3.68-.72,1.2-1.28,1.56-.55.36-1.19.54-1.92.54-1.1,0-1.98-.39-2.65-1.18-.66-.79-1-1.91-1-3.37,0-.99.15-1.82.45-2.5.3-.67.72-1.19,1.26-1.53.54-.35,1.19-.52,1.93-.52,1.12,0,2,.39,2.66,1.17.66.78.98,1.91.98,3.39,0,.96-.15,1.78-.45,2.46Z" fill="#fff"/>
      <path d="M121.94,710.02c.66,0,1-.34,1-1.02v-5.9c0-1.12.32-2.02.96-2.69.64-.67,1.5-1.01,2.59-1.01.94,0,1.62.26,2.05.77.43.51.64,1.32.64,2.42v6.41c0,.33.09.58.26.76.17.18.42.27.74.27.31,0,.55-.09.72-.27.17-.18.25-.43.25-.76v-6.53c0-1.06-.15-1.93-.46-2.62-.31-.69-.77-1.21-1.4-1.55-.62-.34-1.41-.51-2.34-.51-1,0-1.89.24-2.66.72-.59.37-1.06.88-1.4,1.53v-1.2c0-.32-.08-.57-.25-.74-.17-.17-.41-.26-.72-.26s-.54.09-.7.26c-.16.17-.24.42-.24.74v10.16c0,.33.08.58.24.76.16.18.4.27.73.27Z" fill="#fff"/>
      <path d="M137.73,708.84c.79.5,1.73.74,2.82.74s1.97-.28,2.76-.83c.58-.41,1.02-.93,1.3-1.55v2.06c0,1.17-.3,2.06-.89,2.68-.59.62-1.46.93-2.61.93-.63,0-1.27-.08-1.92-.24-.65-.16-1.33-.46-2.04-.9-.16-.08-.32-.11-.47-.07-.15.03-.29.11-.4.23-.11.12-.19.26-.22.41-.03.15-.02.31.04.47.06.16.18.3.38.41.66.44,1.4.76,2.22.96.82.2,1.66.3,2.51.3,1.75,0,3.07-.46,3.97-1.38.9-.92,1.35-2.28,1.35-4.08v-10.16c0-.32-.08-.57-.24-.74-.16-.17-.4-.26-.73-.26s-.55.09-.72.26c-.17.17-.26.42-.26.74v1.27c-.27-.6-.69-1.1-1.26-1.5-.78-.54-1.7-.82-2.77-.82-.81,0-1.54.14-2.2.43-.66.28-1.21.68-1.68,1.19-.46.51-.81,1.13-1.06,1.85-.24.72-.36,1.52-.36,2.4,0,1.17.21,2.2.64,3.09.43.89,1.04,1.59,1.83,2.08ZM137.69,701.39c.3-.64.72-1.14,1.28-1.49.55-.35,1.2-.52,1.94-.52,1.13,0,2.03.39,2.7,1.16.66.77,1,1.81,1,3.13,0,.88-.15,1.64-.45,2.29-.3.65-.72,1.15-1.28,1.5-.55.35-1.21.52-1.97.52-1.12,0-2.01-.39-2.67-1.17-.66-.78-1-1.83-1-3.14,0-.88.15-1.64.45-2.28Z" fill="#fff"/>
      <path d="M152.4,710.02c.66,0,1-.34,1-1.02v-5.9c0-1.12.32-2.02.96-2.69.64-.67,1.5-1.01,2.59-1.01.94,0,1.62.26,2.05.77.43.51.64,1.32.64,2.42v6.41c0,.33.09.58.26.76.17.18.42.27.74.27s.55-.09.72-.27c.17-.18.25-.43.25-.76v-6.53c0-1.06-.15-1.93-.46-2.62-.31-.69-.77-1.21-1.4-1.55-.62-.34-1.41-.51-2.34-.51-1,0-1.89.24-2.66.72-.59.37-1.06.88-1.4,1.53v-1.2c0-.32-.08-.57-.25-.74-.17-.17-.41-.26-.72-.26s-.54.09-.7.26c-.16.17-.24.42-.24.74v10.16c0,.33.08.58.24.76.16.18.4.27.73.27Z" fill="#fff"/>
      <path d="M173.83,709c0,.33.08.58.24.76.16.18.4.27.7.27.29,0,.51-.09.67-.27.15-.18.23-.43.23-.76v-6.6c0-1.06-.16-1.92-.49-2.59-.32-.67-.82-1.18-1.48-1.51-.66-.33-1.51-.5-2.53-.5-.63,0-1.3.08-1.99.24-.7.16-1.4.42-2.11.78-.19.1-.34.23-.43.39-.09.16-.13.33-.11.5s.07.32.17.45c.1.13.23.22.39.26.16.04.36,0,.58-.11.63-.32,1.23-.56,1.8-.71.57-.15,1.13-.22,1.7-.22.92,0,1.59.22,1.99.67.4.45.61,1.17.61,2.18v.76h-.78c-1.78,0-3.19.11-4.21.32-1.03.21-1.77.57-2.21,1.07-.45.5-.67,1.19-.67,2.07,0,.68.19,1.3.56,1.85.37.55.88.99,1.52,1.3.64.32,1.36.48,2.17.48.66,0,1.26-.12,1.8-.37.53-.24.98-.58,1.35-1.02.22-.26.39-.56.52-.89v1.2ZM173.35,706.86c-.28.54-.67.96-1.17,1.27-.49.31-1.07.46-1.71.46-.79,0-1.42-.21-1.88-.63-.46-.42-.69-.97-.69-1.63,0-.54.15-.95.45-1.24.3-.29.83-.5,1.58-.62.75-.12,1.79-.18,3.1-.18h.75v.73c0,.7-.14,1.32-.42,1.85Z" fill="#fff"/>
      <path d="M181.5,695.16c.42,0,.74-.11.96-.33.22-.22.33-.52.33-.89s-.11-.69-.33-.89c-.22-.2-.54-.3-.96-.3s-.72.1-.95.3c-.23.2-.34.5-.34.89s.11.67.34.89c.23.22.54.33.95.33Z" fill="#fff"/>
      <path d="M181.5,697.89c-.32,0-.57.09-.73.27-.16.18-.24.44-.24.78v9.96c0,.34.08.61.24.79.16.19.4.28.73.28s.57-.09.74-.28c.17-.19.26-.45.26-.79v-9.96c0-.34-.09-.6-.27-.78-.18-.18-.42-.27-.73-.27Z" fill="#fff"/>
      <path d="M110.45,720.25c-3.48-1.46-5.59-.43-5.72,2.88-.07,1.65.02,3.18-.48,4.65l-8.8,24.41c-.34,1.21-.83,2.27-2.47,2.65-2.27-9.63-2.78-18.95-.93-28.3.53-2.3-1.97-6.14-4.31-6.66-2.19-.5-4.32,1.08-5.31,3.75-.01.27.12.7-.04.96-2.24,4.33-1.11,9.29-1.29,13.83-.24,6.06,1.14,12.01,2.08,18.05.47,3.09,1.98,5.87,4.09,8.3,3.24,3.78,8.24,4.29,11.63.76,1.23-1.26,2.33-2.81,3.13-4.52,5.45-10.79,9.16-22.3,12.72-33.69,1.02-3.22-.66-5.6-4.29-7.07Z" fill="#fff"/>
      <path d="M182.85,757.75l-.99-17.49c.16-1,.45-2.21.03-3.61-.65-1.87-2.05-2.92-3.85-3.21-1.91-.42-2.93.95-3.59,2.35-.64.95-.57,2.2-.5,3.34.19,7.25.38,14.49,1.17,21.8.17,1.71.83,3.25,1.25,4.87.41,1.85,1.83,2.56,3.62,2.85,2.63.49,4.6-.55,5.76-2.47.91-1.6.14-3.49-1.25-4.87-1.04-1.12-1.6-2.08-1.67-3.56Z" fill="#fff"/>
      <path d="M177.61,728.4c2.76.39,4.37-.69,4.45-2.82.08-2.02-1.65-4.01-3.69-4.21-2.04-.21-4.4,1.47-4.59,3.37-.32,1.89,1.19,3.4,3.83,3.66Z" fill="#fff"/>
      <path d="M226.32,759.58c-1.73-.95-3.06-.2-4.5.32-2.87,1.04-5.62,1.75-8.87.54-7.2-2.83-14.19-14.04-9.5-22.19,3.06-5.55,6.58-10.94,14.5-11.36,1.18-.1,3.53-2.63,3.45-3.52-.17-1.68-1.55-2.59-3.05-3.29-2.9-1.29-5.52-.78-8.04.4-3.14,1.67-6.05,3.7-8.51,6.21-7.14,7.24-9.84,15.81-5.75,25.73,3.22,8.06,8.63,14.36,18.36,15.9,2.69.49,5.18.41,7.56-.23,2.38-.53,4.54-1.31,5.91-3.27,1.61-1.94.87-4-1.56-5.24Z" fill="#fff"/>
      <path d="M259.69,759.79c-2.89,1.17-5.43.65-7.78-1.05-3.18-2.32-6.63-4.8-7.61-8.77.6-.74,1.6-.9,2.47-1.22,5.04-1.49,9.41-4.11,12.96-7.61,3.85-3.74,6.86-7.97,6.1-13.91-.54-4.18-3.93-8.39-8.02-9.21-7.2-1.26-13.64-.45-19.08,4.2-4.28,3.83-6.17,8.57-7.95,13.72-1.46,4.38-.47,8.21,1.93,12.19,1.87,2.99,3.31,6.2,5.33,9.07,4.32,5.77,9.11,10.52,16.72,12.09,3.95.8,7.25.07,10.59-1.59,1.6-.77,2.51-2.28,2.01-4.06-1.12-3.84-3.92-5.19-7.67-3.84ZM241.15,739.79c-1.1-.91-.34-2.03-.16-3.08.5-5.41,4.17-8.24,9.21-9.86,1.15-.42,2.29-.43,3.43-.32,2.12.35,2.8,1.08,2.29,3.16-.17.65-.48,1.42-.93,1.9-2.57,3.74-5.81,6.61-10.28,8.15-1.15.42-2.46.95-3.56.04Z" fill="#fff"/>
      <path d="M131.46,741.8c-.58-.05-1.09.37-1.14.95-.14,1.49-.2,2.99-.17,4.49.01.57.48,1.03,1.05,1.03,0,0,.01,0,.02,0,.58-.01,1.04-.49,1.03-1.07-.03-1.41.03-2.84.16-4.25.05-.58-.37-1.09-.95-1.14Z" fill="#fff"/>
      <path d="M149.61,741.8c-.57-.05-1.09.37-1.14.95-.14,1.49-.2,2.99-.17,4.49.01.57.48,1.03,1.05,1.03,0,0,.01,0,.02,0,.58-.01,1.04-.49,1.03-1.07-.03-1.41.03-2.84.16-4.25.05-.58-.37-1.09-.95-1.14Z" fill="#fff"/>
      <path d="M135.1,738.31c-.58.05-1.01.56-.96,1.13.33,3.89.37,7.83.13,11.73-.04.58.4,1.08.98,1.11.02,0,.04,0,.07,0,.55,0,1.01-.43,1.05-.99.25-3.99.2-8.04-.14-12.03-.05-.58-.56-1.01-1.13-.96Z" fill="#fff"/>
      <path d="M139.87,734.6c-.58.01-1.04.49-1.02,1.07.15,6.44.16,12.97.01,19.4-.01.58.45,1.06,1.03,1.07,0,0,.02,0,.02,0,.57,0,1.04-.45,1.05-1.03.15-6.47.14-13.03-.01-19.5-.01-.58-.49-1.04-1.07-1.02Z" fill="#fff"/>
      <path d="M144.91,737.07c-.58.03-1.02.52-1,1.1.23,4.53.32,9.13.28,13.67,0,.58.46,1.05,1.04,1.06,0,0,0,0,.01,0,.58,0,1.04-.46,1.05-1.04.04-4.58-.05-9.22-.28-13.79-.03-.58-.52-1.03-1.1-1Z" fill="#fff"/>
      <path d="M159.82,752.19l.65-1.36c.92-1.92,1.68-4.4,1.98-6.46.33-2.23.46-4.03.16-6.59-.28-2.42-.93-4.42-2.24-6.9-.47-.89-1.06-1.65-1.62-2.35-1.21-1.51-1.71-2.02-3.38-3.16l-.71-.49c-1.4-.95-3.39-1.69-4.78-2.06-.58-.16-1.97-.46-2.65-.51-.19-.01-.38-.04-.57-.06-.39-.04-.8-.09-1.22-.08-1.06.02-2.26.04-3.49.24-2.62.43-5.06,1.21-7.44,2.37-.63.31-1.22.65-1.78.98-.19.11-.38.22-.57.33-1.09.63-2.51,1.68-3.54,2.62l-2.16,2.02-1.45,1.73c-1.7,2.05-3.07,4.32-4.2,6.94-.04.1-.09.19-.13.29-.1.21-.2.44-.29.69l-.59,1.75c-.4,1.19-.77,3.03-.89,4.11-.27,2.38-.23,4.57.11,6.7.37,2.3,1.14,4.35,2.4,6.47,1.53,2.57,3.91,4.82,6.54,6.17,2.64,1.36,5.5,2.05,8.53,2.05,1.47,0,2.97-.16,4.52-.48,1.05-.22,2.02-.49,3-.77,1.54-.44,2.87-1.09,3.97-1.66.87-.45,1.6-1.02,2.3-1.59,2.24,1.16,5.77,1.96,7.87,1.98l1.4.02c.74,0,1.51-.05,2.12-.49.49-.36.78-.87.82-1.45.05-.65-.23-1.33-.74-1.83-.29-.28-.53-.52-.75-.72-.93-.89-1.28-1.22-2.23-2.62-.44-.65-.89-1.26-1.36-1.87l.97-1.48c.46-.7.99-1.55,1.45-2.5ZM153.55,754.09c-.84.5-1.19,1.31-.88,2.09.54,1.36.98,1.92,1.5,2.56.31.38.62.78,1.04,1.46.13.21.27.4.42.58-.16-.03-.32-.06-.47-.09-1.45-.29-2.75-.88-3.94-1.46-.92-.45-1.85.11-2.26.36-.26.15-.5.31-.75.46-.55.34-1.07.67-1.64.96-5.09,2.61-10.58,3.32-14.69,1.92-.68-.23-1.48-.53-2.23-.97-1.87-1.1-3.46-2.65-4.6-4.48-2.34-3.75-2.32-8.08-1.89-11.05.37-2.58,1.6-6.03,2.85-8.01l.74-1.18c.5-.79,1.07-1.51,1.68-2.28l.41-.52c1.24-1.57,3.69-3.71,5.35-4.69l.06-.04c3.28-2.25,7.24-3.48,10.87-3.48,1.36,0,2.67.17,3.89.53,1.08.32,2.33.74,3.38,1.5.12.09.26.17.4.26.12.07.25.15.32.21.66.54,1.26,1.11,1.89,1.71l.2.19s.03.04.04.07c.07.11.15.24.26.36.74.8,1.45,2.01,2.01,3.43,1.19,3,1.42,6.93.6,10.25l-.3,1.23c-.12.48-.23.85-.36,1.21l-.49,1.34c-.34.93-.94,2.02-1.53,3.07-.81,1.43-1.43,2.28-1.85,2.53ZM157.8,762.07v-.41s0,0,0,0v.41Z" fill="#fff"/>
    </g>
  </g>
  <g id="LOGO_x5F_WPOS">
    <g>
      <path d="M127.38,49.95c-.32-.83-.73-1.59-1.23-2.29-.49-.71-1.08-1.32-1.77-1.84-.69-.52-1.48-.93-2.38-1.22-.89-.3-1.88-.45-2.98-.45s-2.06.15-2.93.45c-.88.29-1.65.69-2.33,1.22-.68.52-1.27,1.14-1.76,1.84-.49.7-.9,1.46-1.23,2.29-.32.82-.55,1.68-.71,2.58-.15.89-.22,1.79-.22,2.7s.07,1.8.22,2.7c.16.89.4,1.75.71,2.57.33.81.74,1.57,1.23,2.28.49.7,1.08,1.3,1.76,1.82.68.51,1.46.92,2.33,1.22.88.29,1.85.43,2.93.43s2.09-.14,2.98-.43c.89-.3,1.69-.7,2.38-1.22.69-.51,1.28-1.12,1.77-1.82.5-.71.91-1.47,1.23-2.28.33-.82.56-1.68.71-2.57.16-.89.24-1.79.24-2.7s-.08-1.8-.24-2.7c-.15-.9-.39-1.76-.71-2.58Z" fill="none"/>
      <path d="M96.91,46.11c-.97-.82-2.48-1.23-4.54-1.23h-6.86v9.61h6.86c2.06.03,3.57-.37,4.54-1.2.98-.84,1.47-2.04,1.47-3.6s-.49-2.76-1.47-3.58Z" fill="none"/>
      <path d="M33.68,39.16c-7.19,7.17-8.45,17.96-3.83,26.44.11.16.16.31.21.52.1.31.1.68.05,1.05l-.68,5.24c0,1.41,1.15,2.51,2.52,2.51l5.35-.68c.47-.05,1,.05,1.42.26,8.39,4.56,19.1,3.4,26.23-3.56,8.81-8.53,9.08-22.62.68-31.41-8.71-9.11-23.08-9.21-31.95-.37ZM63.74,48.32c-.05.31-.21.63-.31.89-1.89,5.24-3.78,10.42-5.67,15.65-.16.37-.26.79-.47,1.1-.63,1.05-1.84,1.1-2.57.16-.26-.37-.47-.84-.63-1.26-1.42-3.51-2.78-7.07-4.14-10.58-.16-.37-.31-.73-.52-1.26-.26.58-.42.94-.58,1.36-1.36,3.51-2.78,7.07-4.14,10.58-.16.37-.26.73-.47,1.1-.63.99-1.94.99-2.62.05-.21-.31-.37-.73-.47-1.1-1.94-5.29-3.83-10.58-5.77-15.86-.1-.21-.16-.47-.21-.68-.26-1.05.16-1.83,1.15-2.15,1-.31,1.78.05,2.15,1.1,1.15,3.3,2.31,6.65,3.46,9.95.16.73.42,1.52.79,2.57.26-.68.47-1.1.63-1.52,1.36-3.46,2.73-6.91,4.14-10.37.16-.42.37-.89.68-1.26.63-.84,1.73-.84,2.36,0,.26.31.47.73.63,1.15,1.42,3.56,2.83,7.12,4.25,10.68.16.37.32.73.58,1.26.21-.52.37-.79.47-1.1,1.31-3.72,2.57-7.49,3.88-11.2.47-1.31,1.52-1.73,2.62-1.1.68.42,1,1.05.79,1.83Z" fill="#fff"/>
      <path d="M99.99,43.76c-.73-.71-1.63-1.25-2.7-1.62-1.06-.38-2.28-.57-3.66-.57h-10.07c-.27,0-.53.05-.77.15-.23.1-.44.24-.61.42-.17.17-.3.37-.41.6-.1.23-.15.48-.15.74v23.77c0,.28.05.54.15.78.1.23.24.43.41.6.18.17.38.3.61.39.24.09.5.14.77.14s.52-.05.75-.14c.24-.09.45-.22.63-.39.18-.17.32-.37.42-.6.1-.23.15-.49.15-.78v-9.5h8.12c1.41.02,2.65-.16,3.72-.54,1.07-.39,1.97-.94,2.68-1.65.73-.71,1.27-1.56,1.63-2.56.37-1,.56-2.1.56-3.31s-.19-2.37-.57-3.37c-.37-1.01-.93-1.86-1.66-2.56ZM96.91,53.29c-.97.83-2.48,1.23-4.54,1.2h-6.86v-9.61h6.86c2.06,0,3.57.41,4.54,1.23.98.82,1.47,2.01,1.47,3.58s-.49,2.77-1.47,3.6Z" fill="#fff"/>
      <path d="M130.72,48.17c-.49-1.06-1.11-2.04-1.86-2.92-.74-.89-1.59-1.66-2.57-2.31-.98-.65-2.07-1.16-3.28-1.51-1.21-.36-2.54-.54-3.98-.54s-2.75.18-3.95.54c-1.2.35-2.29.86-3.26,1.51-.97.64-1.82,1.41-2.56,2.31-.74.88-1.35,1.86-1.84,2.92-.49,1.06-.87,2.19-1.12,3.4-.24,1.19-.36,2.41-.36,3.66s.12,2.47.36,3.66c.25,1.18.62,2.3,1.12,3.35.49,1.05,1.11,2.02,1.84,2.91.74.88,1.59,1.63,2.56,2.28.97.63,2.05,1.13,3.26,1.48,1.2.35,2.52.53,3.95.53s2.77-.18,3.98-.53c1.21-.35,2.31-.85,3.28-1.48.98-.64,1.84-1.4,2.57-2.28.75-.88,1.36-1.85,1.86-2.91.49-1.05.87-2.17,1.12-3.35.25-1.19.38-2.41.38-3.66s-.13-2.47-.38-3.66c-.25-1.2-.62-2.33-1.12-3.4ZM128.1,57.93c-.15.89-.39,1.75-.71,2.57-.32.81-.73,1.57-1.23,2.28-.49.7-1.08,1.3-1.77,1.82-.69.51-1.48.92-2.38,1.22-.89.29-1.88.43-2.98.43s-2.06-.14-2.93-.43c-.88-.3-1.65-.7-2.33-1.22-.68-.51-1.27-1.12-1.76-1.82-.49-.71-.9-1.47-1.23-2.28-.32-.82-.55-1.68-.71-2.57-.15-.89-.22-1.79-.22-2.7s.07-1.8.22-2.7c.16-.9.4-1.76.71-2.58.33-.83.74-1.59,1.23-2.29.49-.71,1.08-1.32,1.76-1.84.68-.52,1.46-.93,2.33-1.22.88-.3,1.85-.45,2.93-.45s2.09.15,2.98.45c.89.29,1.69.69,2.38,1.22.69.52,1.28,1.14,1.77,1.84.5.7.91,1.46,1.23,2.29.33.82.56,1.68.71,2.58.16.89.24,1.79.24,2.7s-.08,1.8-.24,2.7Z" fill="#fff"/>
      <path d="M156.37,56.73c-.49-.55-1.08-1.01-1.76-1.38-.67-.38-1.39-.7-2.17-.96-.77-.27-1.58-.5-2.42-.68-.83-.2-1.65-.38-2.47-.55-.96-.2-1.86-.4-2.7-.61-.83-.22-1.55-.5-2.17-.84-.62-.34-1.1-.74-1.45-1.22-.35-.48-.53-1.09-.53-1.8,0-.86.17-1.57.5-2.15.34-.58.79-1.04,1.33-1.4.55-.35,1.17-.61,1.86-.75.69-.15,1.38-.22,2.07-.22.85,0,1.63.08,2.33.25.72.17,1.35.43,1.9.8.56.35,1.02.81,1.4,1.37.37.55.65,1.22.84,2,.07.24.17.46.31.66.15.19.33.34.53.47.2.12.43.2.67.25.24.04.49.03.74-.03.25-.07.47-.17.67-.31.2-.15.35-.32.47-.52.13-.2.21-.42.25-.66.05-.24.05-.49,0-.74-.24-1.17-.66-2.19-1.26-3.05-.59-.86-1.31-1.56-2.18-2.12-.87-.56-1.85-.97-2.95-1.23-1.1-.27-2.28-.4-3.55-.4s-2.44.16-3.62.49c-1.17.32-2.22.81-3.14,1.47-.92.66-1.66,1.5-2.22,2.52-.56,1.01-.84,2.2-.84,3.59,0,.86.13,1.62.38,2.28.25.65.6,1.23,1.03,1.73.45.49.97.93,1.58,1.3.61.36,1.26.68,1.97.95.72.27,1.47.5,2.25.7.78.2,1.57.38,2.38.55.68.14,1.34.28,1.98.43.64.14,1.25.3,1.82.49.58.18,1.1.38,1.58.61.48.23.9.51,1.24.84.34.32.62.69.81,1.12.2.43.29.92.29,1.48,0,.64-.09,1.21-.28,1.7-.19.48-.44.91-.77,1.27-.32.35-.7.65-1.15.88-.44.23-.91.42-1.43.57-.5.14-1.03.24-1.59.29-.55.06-1.1.08-1.65.08-.97,0-1.9-.1-2.78-.31-.88-.21-1.66-.54-2.36-.98-.69-.45-1.27-1.02-1.73-1.7-.46-.69-.75-1.51-.88-2.46-.04-.25-.13-.47-.27-.66-.14-.2-.32-.35-.53-.46-.2-.12-.43-.2-.68-.24-.24-.05-.49-.04-.74.01-.25.07-.47.17-.66.32-.19.14-.34.31-.46.5-.12.2-.2.41-.25.64-.05.23-.05.48-.01.73.2,1.37.62,2.55,1.29,3.53.67.98,1.5,1.78,2.5,2.42,1.01.63,2.15,1.1,3.42,1.4,1.28.3,2.62.45,4.04.45.86,0,1.72-.07,2.59-.2.87-.12,1.7-.32,2.5-.59.8-.27,1.55-.62,2.25-1.05.7-.43,1.3-.94,1.82-1.54.51-.61.92-1.3,1.22-2.08.3-.79.45-1.68.45-2.67s-.14-1.9-.43-2.64c-.28-.75-.67-1.41-1.17-1.96Z" fill="#fff"/>
    </g>
  </g>
</svg>